<svg xmlns="http://www.w3.org/2000/svg" viewBox="0 0 108 108" fill="none">
  <defs>
    <linearGradient id="drop" x1="54" y1="14" x2="54" y2="95.4" gradientUnits="userSpaceOnUse">
      <stop offset="0" stop-color="#FF8F7F"/>
      <stop offset="0.58" stop-color="#EF6D6A"/>
      <stop offset="1" stop-color="#D74E56"/>
    </linearGradient>
    <radialGradient id="glow" cx="0" cy="0" r="1" gradientUnits="userSpaceOnUse" gradientTransform="translate(46 30) rotate(78) scale(16 16)">
      <stop stop-color="#FFE5DE" stop-opacity="0.9"/>
      <stop offset="1" stop-color="#FFE5DE" stop-opacity="0"/>
    </radialGradient>
  </defs>
  <path d="M54 14C43.1 28.8 25.8 43 25.8 63.8C25.8 82 40.6 95.4 58.8 95.4C77 95.4 91.8 82 91.8 63.8C91.8 43 74.6 28.8 63.6 14C61.6 11.2 56 11.2 54 14Z" fill="url(#drop)"/>
  <path d="M53.7 21.7C45.2 33.2 33.7 43.6 33.7 59.6C33.7 74.5 45.7 86.6 60.6 86.6C75.5 86.6 87.6 74.5 87.6 59.6C87.6 43.6 76 33.2 67.7 21.7C65.9 19.3 55.4 19.3 53.7 21.7Z" fill="url(#glow)" opacity="0.9"/>
  <rect x="29.8" y="41" width="49.4" height="38" rx="8.8" fill="white" fill-opacity="0.95"/>
  <rect x="39.6" y="49.8" width="15.7" height="4.8" rx="2.4" fill="#D12C47"/>
  <rect x="39.6" y="58.5" width="24.1" height="4.8" rx="2.4" fill="#F58B99"/>
  <rect x="39.6" y="67.2" width="18" height="4.8" rx="2.4" fill="#F8B9C2"/>
  <circle cx="73.4" cy="52.4" r="7.2" fill="#C81D35"/>
  <circle cx="73.4" cy="49.1" r="1.5" fill="white"/>
  <rect x="72" y="52.7" width="2.8" height="5" fill="white"/>
</svg>
